# xmcd
#
# Track frame offsets: 
#        150
#        16630
#        27795
#        43157
#        57780
#        74247
#        87937
#        111375
#        128192
#
# Disc length: 1999 seconds
#
# Revision: 0
# Processed by: cddbd v1.5PL3 Copyright (c) Steve Scherf et al.
# Submitted via: ExactAudioCopy v0.95a4
#
DISCID=7807cd09
DTITLE=High or Hellwater - High or Hellwater
DYEAR=2002
DGENRE=Country
TTITLE0=Ain't She Like A Rose
TTITLE1=Life At 24
TTITLE2=White Girl, White Mansion
TTITLE3=The Seeds
TTITLE4=Eulogy
TTITLE5=This Time
TTITLE6=God's Got A Way
TTITLE7=Sweet Brown Hash
TTITLE8=Outta My Mind
EXTD=
EXTT0=
EXTT1=
EXTT2=
EXTT3=
EXTT4=
EXTT5=
EXTT6=
EXTT7=
EXTT8=
PLAYORDER=
